<?xml version="1.0" encoding="UTF-8"?>
<svg version="1.1" xmlns="http://www.w3.org/2000/svg" width="101" height="101">
<path d="M0 0 C33.33 0 66.66 0 101 0 C101 33.33 101 66.66 101 101 C67.67 101 34.34 101 0 101 C0 67.67 0 34.34 0 0 Z " fill="#FCFCFC" transform="translate(0,0)"/>
<path d="M0 0 C33.33 0 66.66 0 101 0 C101 33.33 101 66.66 101 101 C67.67 101 34.34 101 0 101 C0 67.67 0 34.34 0 0 Z M4 4 C4 18.85 4 33.7 4 49 C11.03958591 49 11.88127357 48.99504311 16.9375 45 C18.37416016 43.88625 18.37416016 43.88625 19.83984375 42.75 C20.55269531 42.1725 21.26554687 41.595 22 41 C22 41.66 22 42.32 22 43 C22.66 43 23.32 43 24 43 C19.69992529 48.46225707 14.93763115 52.67313275 9.48828125 56.984375 C6.82793214 59.06769738 6.82793214 59.06769738 4 62 C4 73.55 4 85.1 4 97 C34.69 97 65.38 97 97 97 C97 82.48 97 67.96 97 53 C91.23195828 52.73661239 91.23195828 52.73661239 87.3125 55.5 C84.29166667 58 84.29166667 58 81 58 C82.09514718 54.66828464 83.27151467 53.81768799 86.2578125 51.8125 C91.16776128 48.52310457 91.16776128 48.52310457 97 40 C97 28.12 97 16.24 97 4 C66.31 4 35.62 4 4 4 Z " fill="#0E0E0E" transform="translate(0,0)"/>
<path d="M0 0 C3.54150893 -0.08761663 7.08273633 -0.14059739 10.625 -0.1875 C11.62402344 -0.21263672 12.62304688 -0.23777344 13.65234375 -0.26367188 C19.19292606 -0.31871077 23.25418963 -0.21465807 28 3 C31.93587311 7.3613729 33.30507066 9.95700842 33.21875 15.90234375 C32.77799039 20.12891354 31.03638165 23.05783486 27.9375 25.875 C26 27 26 27 24 27 C24.27263672 27.55985596 24.54527344 28.11971191 24.82617188 28.6965332 C26.05684478 31.23229791 27.27850439 33.77230267 28.5 36.3125 C28.92925781 37.19357422 29.35851562 38.07464844 29.80078125 38.98242188 C30.40986328 40.25375977 30.40986328 40.25375977 31.03125 41.55078125 C31.40830078 42.33106689 31.78535156 43.11135254 32.17382812 43.9152832 C33 46 33 46 33 49 C30.03 49 27.06 49 24 49 C22.68253667 46.41909233 21.37090383 43.83549542 20.0625 41.25 C19.68931641 40.52039063 19.31613281 39.79078125 18.93164062 39.0390625 C18.39506836 37.97558594 18.39506836 37.97558594 17.84765625 36.890625 C17.51773682 36.24125977 17.18781738 35.59189453 16.84790039 34.92285156 C15.98547884 32.96706921 15.45625821 31.08459306 15 29 C13.02 29 11.04 29 9 29 C9 35.27 9 41.54 9 48 C6.6160452 44.42406779 5.04462456 40.75919384 3.375 36.8125 C2.88773438 35.71711914 2.88773438 35.71711914 2.390625 34.59960938 C0.23171901 29.47901093 -0.33952033 25.5517861 0 20 C0.59014893 19.98018066 1.18029785 19.96036133 1.78833008 19.93994141 C4.46350096 19.84465341 7.13789498 19.73499061 9.8125 19.625 C10.74126953 19.5940625 11.67003906 19.563125 12.62695312 19.53125 C13.51962891 19.49257813 14.41230469 19.45390625 15.33203125 19.4140625 C16.56530151 19.36693115 16.56530151 19.36693115 17.82348633 19.31884766 C20.28952937 19.11626378 20.28952937 19.11626378 23 17 C23.5 14.5 23.5 14.5 23 12 C19.86882433 9.91254955 18.93053776 9.72346004 15.33203125 9.5859375 C14.43935547 9.54726563 13.54667969 9.50859375 12.62695312 9.46875 C11.69818359 9.4378125 10.76941406 9.406875 9.8125 9.375 C8.87212891 9.33632813 7.93175781 9.29765625 6.96289062 9.2578125 C4.64224934 9.16357326 2.32115159 9.08069877 0 9 C0 6.03 0 3.06 0 0 Z " fill="#060606" transform="translate(49,24)"/>
<path d="M0 0 C2.40420678 2.16261781 3.62573288 4.01960707 4.79345703 7.02490234 C5.11033478 7.82938812 5.42721252 8.6338739 5.75369263 9.46273804 C6.08505219 10.32839386 6.41641174 11.19404968 6.7578125 12.0859375 C7.1063327 12.97987213 7.45485291 13.87380676 7.81393433 14.79483032 C8.54883397 16.6846753 9.27987257 18.57602561 10.00732422 20.46875 C11.11939446 23.36042413 12.24419534 26.24688918 13.37109375 29.1328125 C14.08409279 30.97105978 14.79635688 32.80959232 15.5078125 34.6484375 C15.84322052 35.51004486 16.17862854 36.37165222 16.52420044 37.2593689 C18.01406957 41.14885537 19.39042786 44.85554331 20 49 C16.7 49 13.4 49 10 49 C7.03 40.42 4.06 31.84 1 23 C-3.10774408 32.82030972 -3.10774408 32.82030972 -6.8125 42.75 C-7.23144531 43.94109375 -7.65039062 45.1321875 -8.08203125 46.359375 C-8.38496094 47.23078125 -8.68789063 48.1021875 -9 49 C-11.97 49 -14.94 49 -18 49 C-17.42696535 43.01037548 -15.65713461 37.95368453 -13.4375 32.3828125 C-13.0861499 31.48505096 -12.7347998 30.58728943 -12.37280273 29.662323 C-11.63324791 27.77674971 -10.89009985 25.89258221 -10.14355469 24.00976562 C-8.99657384 21.11635706 -7.86066424 18.21879032 -6.7265625 15.3203125 C-6.00584517 13.48672872 -5.28451284 11.65338653 -4.5625 9.8203125 C-4.22081787 8.95060822 -3.87913574 8.08090393 -3.52709961 7.18484497 C-3.2100708 6.38666351 -2.89304199 5.58848206 -2.56640625 4.76611328 C-2.14790405 3.70857346 -2.14790405 3.70857346 -1.72094727 2.62966919 C-1 1 -1 1 0 0 Z " fill="#080808" transform="translate(35,24)"/>
<path d="M0 0 C0.33 0 0.66 0 1 0 C1 17.16 1 34.32 1 52 C3.64 52 6.28 52 9 52 C8.67 52.99 8.34 53.98 8 55 C7.34 55 6.68 55 6 55 C-3.42809042 66.78511302 1.37718986 84.91240557 1 100 C33.67 100 66.34 100 100 100 C100 83.17 100 66.34 100 49 C97.69 49 95.38 49 93 49 C94.61594832 46.95880212 96.2856382 44.95927063 98 43 C98.66 43 99.32 43 100 43 C100 28.81 100 14.62 100 0 C100.33 0 100.66 0 101 0 C101 33.33 101 66.66 101 101 C67.67 101 34.34 101 0 101 C0 67.67 0 34.34 0 0 Z " fill="#3C3C3C" transform="translate(0,0)"/>
<path d="M0 0 C0.33 0 0.66 0 1 0 C1 17.16 1 34.32 1 52 C3.64 52 6.28 52 9 52 C8.67 52.99 8.34 53.98 8 55 C7.34 55 6.68 55 6 55 C2.90188612 57.85419359 1.74302899 60.12665703 1.45410156 64.23950195 C1.41306347 65.90539066 1.39303612 67.57188889 1.390625 69.23828125 C1.37408875 70.11904831 1.35755249 70.99981537 1.34051514 71.90727234 C1.2920893 74.70908621 1.27067647 77.51035754 1.25 80.3125 C1.22183575 82.21682409 1.19190768 84.12112297 1.16015625 86.02539062 C1.08633186 90.68354907 1.03672421 95.3414073 1 100 C0.67 100 0.34 100 0 100 C0 67 0 34 0 0 Z " fill="#3F3F3F" transform="translate(0,0)"/>
<path d="M0 0 C0.33 0 0.66 0 1 0 C1 16.17 1 32.34 1 49 C-1.64 49 -4.28 49 -7 49 C-5.38405168 46.95880212 -3.7143618 44.95927063 -2 43 C-1.34 43 -0.68 43 0 43 C0 28.81 0 14.62 0 0 Z " fill="#373737" transform="translate(100,0)"/>
<path d="M0 0 C1.79378179 2.69067269 2.97313958 5.08578257 4.1875 8.0625 C4.55230469 8.94035156 4.91710938 9.81820312 5.29296875 10.72265625 C6 13 6 13 5 15 C4.34 15 3.68 15 3 15 C2.29911844 13.25531628 1.61475991 11.50398839 0.9375 9.75 C0.55464844 8.77546875 0.17179687 7.8009375 -0.22265625 6.796875 C-1.01113787 3.95992605 -1.02437812 2.70590448 0 0 Z " fill="#DFDFDF" transform="translate(51,56)"/>
<path d="M0 0 C0.763125 0.0825 1.52625 0.165 2.3125 0.25 C2.3125 1.57 2.3125 2.89 2.3125 4.25 C-0.3275 4.25 -2.9675 4.25 -5.6875 4.25 C-3.34903846 0.31153846 -3.34903846 0.31153846 0 0 Z " fill="#848484" transform="translate(98.6875,44.75)"/>
<path d="M0 0 C2.31 0 4.62 0 7 0 C6.34 1.32 5.68 2.64 5 4 C4.67 3.34 4.34 2.68 4 2 C2.68 2.33 1.36 2.66 0 3 C0 2.01 0 1.02 0 0 Z " fill="#949494" transform="translate(0,53)"/>
</svg>
